<svg width="113" height="101" viewBox="0 0 113 101" fill="none" xmlns="http://www.w3.org/2000/svg">
<path d="M112.075 50.2152C112.075 75.5761 91.095 96.5425 63.8399 99.9448C61.2915 100.261 58.6842 100.427 56.0376 100.427C52.9827 100.427 49.9827 100.209 47.0612 99.7865C20.3795 95.9373 0 75.2067 0 50.2152C0 22.4828 25.0915 0 56.0415 0C86.9916 0 112.083 22.4828 112.083 50.2152H112.075Z" fill="#383D38"/>
<path d="M63.8402 40.3215V51.2604H78.9422L76.5508 65.9956H63.8402V99.945C61.2918 100.262 58.6844 100.427 56.0379 100.427C52.9829 100.427 49.9829 100.209 47.0615 99.7867V65.9956H33.1335V51.2604H47.0615V37.8762C47.0615 29.5727 54.5732 22.8384 63.8441 22.8384V22.8454C63.8716 22.8454 63.8951 22.8384 63.9226 22.8384L78.9461 22.8384V35.5822H69.1294C66.2119 35.5822 63.8441 37.7038 63.8441 40.318L63.8402 40.3215Z" fill="white"/>
</svg>
