<svg width="1806" height="595" viewBox="0 0 1806 595" fill="none" xmlns="http://www.w3.org/2000/svg">
<path d="M655.061 345.008V399.068C658.543 385.507 669.172 379.46 688.23 379.46C716.818 379.46 724.331 387.706 724.331 420.509L724.515 491.612H689.696V428.755C689.696 410.797 688.23 408.78 674.486 408.78C660.925 408.78 655.061 415.378 655.061 430.588V491.612H620.243V345.008H655.061Z" fill="white"/>
<path d="M725.016 492.112H689.196V428.756C689.196 411.1 687.821 409.28 674.486 409.28C661.22 409.28 655.561 415.652 655.561 430.588V492.112H619.743V344.507H655.561V395.798C659.853 384.331 670.335 378.96 688.23 378.96C717.306 378.96 724.831 387.503 724.831 420.508L725.016 492.112ZM690.196 491.112H724.013L723.831 420.509C723.831 388.297 716.511 379.96 688.23 379.96C669.3 379.96 658.914 386.071 655.545 399.192L654.561 403.026V345.507H620.743V491.112H654.561V430.588C654.561 415.16 660.706 408.28 674.486 408.28C688.434 408.28 690.196 410.576 690.196 428.756V491.112Z" fill="white"/>
<path d="M796.722 493.811C752.009 493.811 740.83 482.45 740.83 436.636C740.83 390.822 752.009 379.46 796.722 379.46C840.154 379.46 851.7 389.539 852.615 429.489V446.531H777.664C778.398 465.773 781.879 468.155 796.906 468.155C811.383 468.155 815.048 465.773 815.048 456.611H851.7C850.966 486.297 839.971 493.811 796.722 493.811ZM815.965 420.876C815.598 406.765 813.032 405.116 796.906 405.116C783.345 405.116 779.13 406.948 777.847 420.876H815.965Z" fill="white"/>
<path d="M796.722 494.311C772.743 494.311 759.685 490.962 751.651 482.753C743.61 474.536 740.331 461.176 740.331 436.636C740.331 412.097 743.61 398.735 751.651 390.519C759.685 382.309 772.743 378.96 796.722 378.96C840.601 378.96 852.195 389.347 853.115 429.478V447.031H778.185C778.959 465.74 782.501 467.655 796.906 467.655C811.085 467.655 814.548 465.487 814.548 456.61V456.11H852.212L852.2 456.623C851.46 486.562 840.053 494.311 796.722 494.311ZM796.722 379.96C752.202 379.96 741.331 391.083 741.331 436.636C741.331 482.188 752.202 493.311 796.722 493.311C839.529 493.311 850.346 486.189 851.186 457.11H815.544C815.401 466.157 811.279 468.655 796.906 468.655C781.832 468.655 777.924 466.483 777.165 446.55L777.145 446.031H852.115V429.489C851.632 408.411 848.203 396.929 840.28 389.866C832.385 382.83 819.766 379.96 796.722 379.96ZM816.478 421.376H777.298L777.349 420.83C778.647 406.744 782.912 404.616 796.906 404.616C813.538 404.616 816.097 406.742 816.465 420.863L816.478 421.376ZM778.397 420.376H815.451C815.057 407.286 812.825 405.616 796.906 405.616C783.595 405.616 779.686 407.469 778.397 420.376Z" fill="white"/>
<path d="M875.892 348.674H914.376V402.183H969.352V348.674H1007.83V491.612H969.352V435.17H914.376V491.612H875.892V348.674Z" fill="white"/>
<path d="M1008.33 492.112H968.853V435.669H914.876V492.112H875.393V348.174H914.876V401.683H968.853V348.174H1008.33V492.112ZM969.853 491.112H1007.33V349.174H969.853V402.683H913.876V349.174H876.393V491.112H913.876V434.669H969.853V491.112Z" fill="white"/>
<path d="M1083.53 379.46C1129.52 379.46 1141.07 390.822 1141.07 436.636C1141.07 482.45 1129.52 493.811 1083.53 493.811C1037.53 493.811 1025.98 482.45 1025.98 436.636C1025.98 390.822 1037.53 379.46 1083.53 379.46ZM1062.64 436.636C1062.64 463.391 1064.65 466.323 1083.53 466.323C1102.4 466.323 1104.42 463.391 1104.42 436.636C1104.42 409.88 1102.4 406.948 1083.53 406.948C1064.65 406.948 1062.64 409.88 1062.64 436.636Z" fill="white"/>
<path d="M1083.53 494.31C1058.86 494.31 1045.43 490.964 1037.15 482.759C1028.87 474.536 1025.48 461.173 1025.48 436.635C1025.48 412.098 1028.87 398.736 1037.15 390.512C1045.43 382.306 1058.86 378.96 1083.53 378.96C1108.19 378.96 1121.63 382.306 1129.9 390.512C1138.19 398.735 1141.57 412.098 1141.57 436.635C1141.57 461.173 1138.19 474.536 1129.9 482.759C1121.63 490.964 1108.19 494.31 1083.53 494.31ZM1083.53 379.96C1037.68 379.96 1026.48 391.083 1026.48 436.635C1026.48 482.187 1037.68 493.31 1083.53 493.31C1129.37 493.31 1140.57 482.187 1140.57 436.635C1140.57 391.083 1129.37 379.96 1083.53 379.96ZM1083.53 466.822C1064.33 466.822 1062.13 463.719 1062.13 436.635C1062.13 409.552 1064.33 406.448 1083.53 406.448C1102.72 406.448 1104.92 409.552 1104.92 436.635C1104.92 463.719 1102.72 466.822 1083.53 466.822ZM1083.53 407.448C1065.04 407.448 1063.13 410.176 1063.13 436.635C1063.13 463.094 1065.04 465.822 1083.53 465.822C1102.01 465.822 1103.92 463.094 1103.92 436.635C1103.92 410.176 1102.01 407.448 1083.53 407.448Z" fill="white"/>
<path d="M1208.51 491.612H1188.54C1164.9 491.612 1159.03 485.564 1159.22 461.558V345.008H1194.04V451.113C1194.04 459.543 1195.5 460.459 1208.51 460.459V491.612Z" fill="white"/>
<path d="M1209.01 492.113H1188.54C1175.88 492.113 1168.96 490.351 1164.68 486.03C1160.34 481.664 1158.62 474.572 1158.72 461.554V344.508H1194.54V451.113C1194.54 458.96 1195.31 459.959 1208.51 459.959H1209.01V492.113ZM1159.72 345.508V461.558C1159.62 474.284 1161.26 481.17 1165.39 485.326C1169.47 489.436 1176.17 491.113 1188.54 491.113H1208.01V460.958C1195.17 460.93 1193.54 459.744 1193.54 451.113V345.508H1159.72Z" fill="white"/>
<path d="M1275.95 491.612H1255.98C1232.34 491.612 1226.47 485.564 1226.66 461.558V345.008H1261.48V451.113C1261.48 459.543 1262.94 460.459 1275.95 460.459V491.612Z" fill="white"/>
<path d="M1276.45 492.113H1255.98C1243.32 492.113 1236.41 490.351 1232.12 486.031C1227.78 481.664 1226.06 474.572 1226.16 461.554V344.508H1261.97V451.113C1261.97 458.96 1262.75 459.959 1275.95 459.959H1276.45V492.113ZM1227.16 345.508V461.558C1227.06 474.284 1228.7 481.17 1232.83 485.326C1236.91 489.436 1243.61 491.113 1255.98 491.113H1275.45V460.958C1262.61 460.93 1260.97 459.744 1260.97 451.113V345.508H1227.16Z" fill="white"/>
<path d="M1320.3 528.264H1295.2V498.943H1315.91C1329.83 498.943 1331.67 498.21 1333.68 491.063L1334.6 487.947H1312.61L1282.19 381.66H1318.47L1340.65 463.025H1341.74L1362.82 381.66H1396.9L1365.02 500.225C1358.97 522.582 1349.62 528.264 1320.3 528.264Z" fill="white"/>
<path d="M1320.3 528.764H1294.7V498.443H1315.91C1329.66 498.443 1331.28 497.741 1333.2 490.927L1333.93 488.447H1312.23L1312.13 488.084L1281.52 381.16H1318.85L1318.95 381.529L1341.03 462.525H1341.36L1362.43 381.16H1397.56L1397.39 381.79L1365.5 500.355C1359.4 522.923 1350.1 528.764 1320.3 528.764ZM1295.7 527.764H1320.3C1349.5 527.764 1358.59 522.075 1364.53 500.094L1396.25 382.16H1363.2L1342.13 463.525H1340.26L1340.16 463.157L1318.09 382.16H1282.85L1312.98 487.447H1335.26L1334.16 491.203C1332 498.883 1329.63 499.443 1315.91 499.443H1295.7V527.764Z" fill="white"/>
<path d="M1446.02 381.66H1402.22V348.674H1528.67V381.66H1484.51V491.612H1446.02V381.66Z" fill="white"/>
<path d="M1485.01 492.112H1445.52V382.16H1401.72V348.174H1529.17V382.16H1485.01V492.112ZM1446.52 491.112H1484.01V381.16H1528.17V349.174H1402.72V381.16H1446.52V491.112Z" fill="white"/>
<path d="M1575.22 381.66V402.001C1578.34 387.89 1588.23 381.66 1606.56 381.66H1619.2V412.812L1594.46 412.446C1580.9 412.263 1575.22 417.577 1575.22 429.855V491.612H1540.4V381.66H1575.22Z" fill="white"/>
<path d="M1575.72 492.112H1539.9V381.16H1575.72V398.333C1579.7 386.638 1589.6 381.16 1606.56 381.16H1619.7V413.32L1594.45 412.946C1587.54 412.844 1582.74 414.226 1579.78 417.147C1577.05 419.84 1575.72 423.996 1575.72 429.854V492.112ZM1540.9 491.112H1574.72V429.854C1574.72 423.715 1576.14 419.325 1579.07 416.435C1582.23 413.317 1587.25 411.847 1594.47 411.946L1618.7 412.304V382.16H1606.56C1588.27 382.16 1578.76 388.312 1575.71 402.108L1574.72 406.585V382.16H1540.9V491.112Z" fill="white"/>
<path d="M1633.68 345.009H1670.33V370.664H1633.68V345.009ZM1669.42 491.612H1634.6V381.66H1669.42V491.612Z" fill="white"/>
<path d="M1669.92 492.113H1634.1V381.161H1669.92V492.113ZM1635.1 491.113H1668.92V382.161H1635.1V491.113ZM1670.83 371.164H1633.18V344.508H1670.83V371.164ZM1634.18 370.164H1669.83V345.508H1634.18V370.164Z" fill="white"/>
<path d="M1692.15 381.66H1726.05V402.367C1729.16 386.423 1740.34 379.46 1761.78 379.46C1796.05 379.46 1804.66 390.822 1804.66 436.636C1804.66 482.45 1796.42 493.811 1763.61 493.811C1741.99 493.811 1730.44 487.214 1726.96 472.003V528.264H1692.15V381.66ZM1747.12 464.49C1766 464.49 1768.01 461.742 1768.01 436.636C1768.01 411.53 1766.18 408.781 1748.95 408.781C1733.74 408.781 1726.96 415.012 1726.96 429.855V452.579C1726.96 460.459 1734.11 464.49 1747.12 464.49Z" fill="white"/>
<path d="M1727.46 528.763H1691.64V381.16H1726.55V398.313C1730.7 384.967 1741.76 378.96 1761.78 378.96C1796.24 378.96 1805.16 390.818 1805.16 436.635C1805.16 482.452 1796.62 494.31 1763.61 494.31C1743.2 494.31 1731.87 488.509 1727.46 475.607V528.763ZM1692.64 527.763H1726.46V467.578L1727.45 471.891C1730.84 486.705 1741.99 493.31 1763.61 493.31C1796.21 493.31 1804.16 482.187 1804.16 436.635C1804.16 391.083 1795.85 379.96 1761.78 379.96C1740.45 379.96 1729.58 386.9 1726.54 402.463L1725.55 402.367V382.16H1692.64V527.763ZM1747.12 464.99C1730.05 464.99 1726.46 458.241 1726.46 452.579V429.854C1726.46 414.933 1733.4 408.28 1748.95 408.28C1766.5 408.28 1768.51 411.195 1768.51 436.635C1768.51 462.075 1766.31 464.99 1747.12 464.99ZM1748.95 409.28C1733.89 409.28 1727.46 415.433 1727.46 429.854V452.579C1727.46 462.01 1738.15 463.99 1747.12 463.99C1765.61 463.99 1767.51 461.433 1767.51 436.635C1767.51 411.837 1765.78 409.28 1748.95 409.28Z" fill="white"/>
<path d="M523.769 227.749C522.466 226.351 520.827 225.627 518.801 225.627C516.872 225.627 515.136 226.399 513.689 227.942C512.194 229.485 511.423 231.27 511.423 233.247C511.423 235.417 512.146 237.202 513.593 238.697C514.991 240.192 516.679 240.915 518.608 240.915C520.634 240.915 522.322 240.192 523.672 238.697C525.071 237.202 525.746 235.417 525.746 233.247C525.746 231.029 525.071 229.196 523.769 227.749ZM506.455 227.749C505.153 226.351 503.513 225.627 501.488 225.627C499.51 225.627 497.774 226.399 496.279 227.942C494.784 229.485 494.013 231.27 494.013 233.247C494.013 235.417 494.736 237.202 496.183 238.697C497.581 240.192 499.317 240.915 501.343 240.915C503.32 240.915 505.008 240.192 506.359 238.697C507.757 237.202 508.432 235.417 508.432 233.247C508.432 231.029 507.757 229.196 506.455 227.749Z" fill="white"/>
<path d="M713.704 259.868V302.597H700.972V255.479L689.494 259.868V302.597H677.293V255.479L665.815 259.868V302.597H559.329V302.694H557.4V256.203H545.874V264.594C531.165 253.791 516.166 251.814 500.83 258.662C484.674 268.694 478.067 281.956 480.912 298.401C483.034 305.973 489.207 311.519 499.383 314.991H725.182V255.479L713.704 259.868ZM545.681 300.234C545.536 301.729 544.91 302.549 543.752 302.694H502.036C497.165 302.308 493.933 299.848 492.294 295.218C490.268 277.664 498.563 267.777 517.082 265.51C538.978 266.668 548.527 278.242 545.681 300.234Z" fill="white"/>
<path d="M1016.94 226.404C1015.59 225.005 1013.95 224.282 1012.02 224.282C1009.99 224.282 1008.26 225.054 1006.76 226.549C1005.27 228.092 1004.54 229.828 1004.54 231.854C1004.54 233.976 1005.27 235.76 1006.67 237.255C1008.11 238.75 1009.8 239.473 1011.73 239.473C1013.75 239.473 1015.44 238.75 1016.84 237.255C1018.24 235.76 1018.92 233.976 1018.92 231.854C1018.92 229.635 1018.29 227.851 1016.94 226.404ZM999.529 226.404C998.179 225.005 996.539 224.282 994.61 224.282C992.633 224.282 990.848 225.054 989.353 226.549C987.906 228.092 987.135 229.828 987.135 231.854C987.135 233.976 987.858 235.76 989.305 237.255C990.704 238.75 992.391 239.473 994.321 239.473C996.346 239.473 998.034 238.75 999.433 237.255C1000.83 235.76 1001.56 233.976 1001.56 231.854C1001.55 229.635 1000.88 227.851 999.529 226.404Z" fill="white"/>
<path d="M1245.99 292.036C1241.84 278.387 1232.77 271.78 1218.74 272.263C1202.05 275.301 1193.23 285.429 1192.31 302.597L1046.42 303.712C1046.86 302.362 1047.15 301.108 1047.34 299.902C1049.46 268.265 1038.03 252.254 1013.1 251.964C990.962 252.35 980.545 268.313 981.75 299.998C981.943 302.12 982.281 303.326 982.763 303.712L810.207 302.597C812.232 298.98 813.341 295.074 813.679 290.83C812.811 265.559 799.163 252.056 772.782 250.223C750.067 253.116 736.853 265.656 733.236 287.743H745.631C749.199 274.77 757.205 266.572 769.551 263.244C794.533 262.328 804.468 273.758 799.452 297.582C797.764 300.427 795.256 302.115 791.977 302.597H731.838L737.962 314.992H785.804C788.601 315.137 791.205 315.088 793.617 314.992C796.251 314.992 982.725 316.107 983.152 316.107C983.387 316.107 1051.51 316.106 1051.73 316.106C1057.47 316.106 1183.78 314.992 1189.51 314.992C1190.56 315.243 1194.39 315.407 1198.77 313.732C1200.97 312.894 1202.27 311.64 1202.68 309.976L1204.9 296.858C1207.36 290.107 1210.73 286.248 1215.03 285.187C1219.27 284.175 1224.33 285.091 1230.22 288.033C1233.93 292.084 1235.23 296.714 1234.22 301.97C1234.17 307.613 1231.47 310.073 1226.21 309.446L1208.9 299.511L1207.6 311.23L1228.67 324.927L1232.15 323.624C1244.25 314.751 1248.88 304.237 1245.99 292.036ZM1036.49 299.902C1036.49 301.3 1036.2 302.554 1035.57 303.712H993.421C992.843 302.844 992.505 301.686 992.312 300.143C990.624 274.727 997.472 262.381 1012.91 263.153C1031.91 261.947 1039.77 274.197 1036.49 299.902Z" fill="white"/>
<path d="M1305.1 227.749C1303.74 226.351 1302.11 225.627 1300.13 225.627C1298.15 225.627 1296.46 226.399 1294.97 227.942C1293.47 229.485 1292.75 231.27 1292.75 233.247C1292.75 235.417 1293.42 237.202 1294.87 238.697C1296.32 240.192 1298.01 240.915 1299.94 240.915C1301.91 240.915 1303.6 240.192 1305 238.697C1306.35 237.202 1307.03 235.417 1307.03 233.247C1307.03 231.029 1306.4 229.196 1305.1 227.749ZM1287.78 227.749C1286.48 226.351 1284.79 225.627 1282.81 225.627C1280.79 225.627 1279.05 226.399 1277.56 227.942C1276.06 229.485 1275.34 231.27 1275.34 233.247C1275.34 235.417 1276.06 237.202 1277.46 238.697C1278.91 240.192 1280.6 240.915 1282.62 240.915C1284.65 240.915 1286.29 240.192 1287.69 238.697C1289.04 237.202 1289.71 235.417 1289.71 233.247C1289.71 231.029 1289.08 229.196 1287.78 227.749Z" fill="white"/>
<path d="M1749.04 267.633C1744.65 264.691 1737.9 263.196 1728.93 263.051H1671.25L1665.8 275.542H1721.55C1728.88 275.494 1733.94 275.686 1736.64 276.121C1739.35 276.603 1741.76 278.098 1743.97 280.751C1746.14 283.355 1747.06 286.779 1746.68 290.975C1746.34 295.219 1745.13 298.209 1743.15 299.945C1741.13 301.729 1737.37 302.597 1731.82 302.597H1487.89V224.614H1476.41V302.597H1340.9V302.694H1338.73V256.203H1327.15V264.594C1312.44 253.791 1297.44 251.814 1282.16 258.662C1266 268.694 1259.34 281.956 1262.19 298.401C1264.31 305.973 1270.48 311.519 1280.71 314.992H1476.07H1488.43H1738.14C1740.51 314.596 1744.87 313.321 1749.5 310.151C1752.52 308.083 1754.78 305.563 1756.27 302.597C1761.34 286.875 1758.97 275.204 1749.04 267.633ZM1326.96 300.234C1326.86 301.729 1326.19 302.549 1325.03 302.694H1283.31C1278.49 302.308 1275.21 299.848 1273.57 295.218C1271.59 277.664 1279.84 267.777 1298.36 265.51C1320.3 266.668 1329.8 278.242 1326.96 300.234Z" fill="white"/>
<path d="M1804.62 314.985C1799.71 335.392 1784.61 343.65 1759.35 339.763L1760.63 328.193C1771.13 330.623 1778.77 330.303 1783.54 327.237C1788.31 324.171 1791.42 320.086 1792.87 314.985V267.25H1804.62V314.985Z" fill="white"/>
<path d="M423.959 242.547C423.798 240.298 421.976 239.387 419.573 239.723C414.289 240.466 411.647 238.343 411.367 233.052C410.821 222.815 410.484 212.557 409.875 202.319C409.672 198.928 410.905 196.826 413.504 194.632C416.84 191.823 419.811 188.417 422.249 184.801C423.321 183.211 423.237 180.275 422.551 178.348C422.235 177.451 419.264 177.43 417.47 177.136C416.686 177.009 415.845 177.234 415.032 177.241C411.15 177.269 409.587 176.085 409.356 172.217C408.711 161.286 408.13 150.34 407.843 139.395C407.801 137.594 409.069 135.506 410.281 133.986C412.138 131.659 414.506 129.754 416.588 127.602C418.69 125.43 420.448 122.957 419.145 119.796C417.807 116.545 414.738 117.912 412.341 117.848C407.38 117.715 406.595 117.127 405.635 112.187C404.129 104.416 402.608 96.6379 401.081 88.8739C400.878 87.8439 400.758 86.7439 400.275 85.8469C399.371 84.1509 398.124 84.1159 397.115 85.7699C396.645 86.5409 396.435 87.5079 396.26 88.4119C394.704 96.4069 393.142 104.395 391.663 112.397C390.969 116.132 389.372 117.652 385.567 117.785C384.516 117.827 383.465 117.75 382.414 117.75C377.565 117.75 375.631 120.672 378.217 124.779C380.109 127.778 382.568 130.594 385.301 132.851C386.702 134.007 387.676 135.191 388.272 136.55C389.021 138.295 388.994 139.865 388.972 140.608C388.832 145.611 388.594 152.94 388.202 161.93C388.202 164.614 388.244 167.298 388.188 169.981C388.062 176.512 386.205 177.941 379.709 177.066C378.034 176.841 375.126 176.967 374.748 177.815C373.879 179.728 373.298 182.783 374.272 184.325C376.647 188.088 379.541 191.823 383.044 194.506C386.345 197.036 387.69 199.474 387.347 203.559C386.527 213.306 385.974 223.088 385.511 232.856C385.231 238.84 383.437 240.522 377.474 239.688C372.674 239.015 369.864 242.19 372.198 246.366C374.769 250.977 378.413 254.978 381.433 259.357C382.547 260.976 383.885 262.868 383.976 264.689C384.282 270.799 383.822 274.2 383.801 281.128C383.771 291.155 383.794 292.165 382.539 297.689C381.615 301.757 380.758 306.665 372.363 312.31C391.574 348.135 404.481 364.951 411.085 362.761C415.763 361.21 417.28 350.125 415.635 329.505C415.494 326.59 415.445 323.668 415.333 320.753C414.646 302.234 413.988 283.714 413.574 265.187C413.525 263.127 414.843 260.828 416.062 258.993C418.178 255.811 421.093 253.114 422.922 249.792C424.036 247.774 424.134 244.95 423.959 242.547Z" fill="white"/>
<path d="M432.574 438.894C431.236 448.942 428.09 458.899 424.544 468.457C420.193 480.166 415.049 491.651 409.381 502.785C405.499 510.409 400.65 517.696 395.303 524.395C385.956 536.132 376.433 547.827 365.978 558.554C356.659 568.112 346.078 576.472 335.834 585.097C331.882 588.426 327.334 591.046 323.025 593.94C322.59 594.228 321.946 594.193 321.399 594.312C321.511 593.688 321.441 592.952 321.764 592.476C323.936 589.21 326.101 585.938 328.427 582.778C336.906 571.258 346.008 560.152 353.786 548.184C360.534 537.799 366.35 526.721 371.57 515.482C375.943 506.057 378.942 495.995 382.382 486.157C387.75 470.811 389.48 454.772 389.992 438.712C390.258 430.177 388.605 421.544 387.364 413.024C385.949 403.305 382.634 394.182 378.605 385.17C369.636 365.151 355.86 348.986 339.302 335.105C327.348 325.078 314.21 316.704 300.119 309.837C285.306 302.62 270.542 295.283 256.009 287.512C243.088 280.596 232.542 270.786 224.281 258.629C223.314 257.2 223.027 255.28 221.954 253.969C220.861 252.631 219.271 251.068 217.757 250.914C216.727 250.809 215.052 252.75 214.38 254.124C209.496 264.116 201.886 271.831 193.414 278.62C183.675 286.433 172.687 292.27 161.301 297.428C151.246 301.982 141.064 306.432 131.549 311.96C121.122 318.021 111.291 325.134 101.369 332.029C89.583 340.227 79.857 350.611 71.309 362.047C67.357 367.337 63.895 373.034 60.644 378.787C52.242 393.656 48.465 410.053 46.651 426.772C45.67 435.839 45.845 445.277 47.197 454.296C49.152 467.385 52.333 480.327 55.62 493.178C57.077 498.847 59.922 504.193 62.396 509.575C65.976 517.388 69.536 525.236 73.586 532.817C77.075 539.355 81.126 545.612 85.127 551.87C88.693 557.454 92.288 563.046 96.296 568.322C101.558 575.245 107.304 581.804 112.686 588.643C113.905 590.205 114.444 592.294 115.299 594.137C113.134 593.443 110.696 593.177 108.874 591.964C105.3 589.596 102.035 586.737 98.699 584.011C80.621 569.233 63.489 553.53 49.068 535.004C40.477 523.96 32.23 512.728 25.987 500.192C21.222 490.634 16.646 480.965 12.589 471.099C4.054 450.344 0.649007 428.411 0.845007 406.213C0.971007 391.021 3.185 375.704 8.448 361.248C12.134 351.13 16.527 341.236 21.159 331.503C28.117 316.865 38.032 304.175 49.404 292.768C56.278 285.873 63.881 279.608 71.631 273.694C79.57 267.633 87.957 262.14 96.394 256.779C104.733 251.475 113.449 246.787 121.858 241.581C129.951 236.564 138.212 231.708 145.759 225.934C155.821 218.233 165.764 210.238 174.804 201.388C182.49 193.876 188.986 185.111 195.692 176.646C199.574 171.748 203.028 166.479 206.308 161.146C209.096 156.613 211.283 151.701 213.903 147.055C214.674 145.689 216.167 143.586 217.098 143.699C218.885 143.923 221.177 145.072 222.095 146.557C225.549 152.191 228.1 158.413 231.799 163.858C238.127 173.177 244.812 182.28 251.812 191.109C261.285 203.056 272.889 212.922 284.969 222.045C294.59 229.311 305.087 235.422 315.254 241.952C321.413 245.904 327.699 249.667 333.914 253.542C342 258.594 350.248 263.422 358.116 268.796C365.887 274.094 373.434 279.693 380.28 286.139V286.146C380.28 286.146 380.294 286.16 380.315 286.181C381.506 287.379 415.042 321.301 427.319 357.864C427.319 357.878 427.326 357.892 427.326 357.899C428.622 362.888 430.058 367.856 430.991 372.908C431.039 373.16 431.082 373.406 431.131 373.658C431.138 373.693 431.138 373.728 431.145 373.763C431.334 374.786 431.523 375.809 431.705 376.832C431.705 376.839 431.712 376.853 431.712 376.867C433.079 384.491 434.298 392.199 434.41 399.871C434.599 412.884 434.291 426.029 432.574 438.894Z" fill="white"/>
<path d="M368.315 50.3499C370.74 51.3879 372.884 52.2239 374.957 53.2099C379.192 55.2249 381.767 54.6839 384.902 51.1999C389.103 46.5309 393.299 41.8509 397.669 37.3419C399.628 35.3219 399.723 33.7659 397.332 32.3159C392.67 29.4879 387.97 26.7179 383.251 23.9839C377.724 20.7819 372.111 17.7269 366.634 14.4409C364.036 12.8819 364.176 10.4279 366.909 9.05093C368.309 8.34593 370.124 7.66894 371.552 7.95994C376.442 8.95794 381.247 10.3779 386.077 11.6619C387.985 12.1689 389.874 12.7449 391.772 13.2859C397.46 14.9079 403.162 16.4859 408.834 18.1639C412.94 19.3789 416.054 18.4019 419.18 15.2499C423.741 10.6509 428.85 6.57993 433.886 2.48193C435.056 1.52993 436.848 1.03994 438.4 0.915937C443.389 0.517937 445.423 3.54093 443.775 8.24493C441.518 14.6869 436.902 19.2849 431.936 23.5329C427.478 27.3469 425.254 31.1909 427.413 37.4669C430.09 45.2479 431.504 53.4549 433.695 61.4139C434.831 65.5409 436.749 69.4639 437.715 73.6189C438.032 74.9829 436.856 77.5479 435.645 78.1709C434.432 78.7959 432.264 77.8449 430.633 77.2589C429.862 76.9819 429.216 76.0279 428.77 75.2369C425.072 68.6709 421.442 62.0669 417.776 55.4839C416.367 52.9539 414.991 50.4019 413.466 47.9439C411.905 45.4289 409.341 45.3909 406.636 47.8589C403.021 51.1569 399.842 55.0689 395.836 57.7699C390.315 61.4929 389.287 65.6459 392.221 71.3589C392.934 72.7469 393.415 74.6419 393.067 76.0769C392.714 77.5259 391.418 79.1169 390.098 79.7979C389.593 80.0589 389.003 79.6399 386.681 77.7179C384.25 75.7059 383.503 74.9429 383.503 74.9429C374.574 65.8149 370.109 61.2509 368.4 60.0539C368.001 59.7739 366.504 58.7429 365.479 56.8469C364.948 55.8619 364.094 54.2999 364.738 52.7489C365.179 51.6909 366.967 51.1909 368.315 50.3499Z" fill="white"/>
<path d="M272.135 79.844C272.135 108.067 249.251 130.945 221.035 130.945C192.811 130.945 169.934 108.067 169.934 79.844C169.934 51.628 192.811 28.75 221.035 28.75C226.427 28.75 231.625 29.585 236.506 31.134C233.766 30.582 230.932 30.292 228.03 30.292C204.553 30.292 185.527 49.325 185.527 72.795C185.527 96.272 204.553 115.305 228.03 115.305C251.506 115.305 270.539 96.272 270.539 72.795C270.539 69.779 270.223 66.83 269.624 63.995C271.253 68.984 272.135 74.31 272.135 79.844Z" fill="white"/>
<path d="M229.806 63.032L232.747 68.992L239.322 69.946L234.564 74.584L235.687 81.133L229.806 78.042L223.925 81.133L225.048 74.584L220.29 69.946L226.865 68.992L229.806 63.032Z" fill="white"/>
<path d="M524.028 381.66H480.23V348.674H606.676V381.66H562.511V491.612H524.028V381.66Z" fill="white"/>
<path d="M563.011 492.112H523.528V382.16H479.73V348.174H607.176V382.16H563.011V492.112ZM524.528 491.112H562.011V381.16H606.176V349.174H480.73V381.16H524.528V491.112Z" fill="white"/>
</svg>
