<?xml version="1.0" encoding="utf-8"?>
<!-- Generator: Adobe Illustrator 23.0.5, SVG Export Plug-In . SVG Version: 6.00 Build 0)  -->
<svg version="1.1" id="Layer_1" xmlns="http://www.w3.org/2000/svg" xmlns:xlink="http://www.w3.org/1999/xlink" x="0px" y="0px"
	 viewBox="0 0 1920 1080" style="enable-background:new 0 0 1920 1080;" xml:space="preserve">
<style type="text/css">
	.st0{display:none;fill:#231F20;}
	.st1{fill:#231F20;}
</style>
<rect class="st0" width="1920" height="1080"/>
<g>
	<path class="st1" d="M712.061,521.008v54.06c3.482-13.561,14.111-19.608,33.169-19.608c28.588,0,36.101,8.246,36.101,41.049
		l0.184,71.103h-34.819v-62.857c0-17.958-1.466-19.975-15.21-19.975c-13.561,0-19.425,6.598-19.425,21.808v61.024h-34.818V521.008
		H712.061z"/>
	<path class="st1" d="M782.016,668.112h-35.82v-63.356c0-17.656-1.375-19.476-14.71-19.476c-13.266,0-18.925,6.372-18.925,21.308
		v61.524h-35.818V520.507h35.818v51.291c4.292-11.467,14.774-16.838,32.669-16.838c29.076,0,36.601,8.543,36.601,41.548
		L782.016,668.112z M747.196,667.112h33.817l-0.182-70.603c0-32.212-7.32-40.549-35.601-40.549c-18.93,0-29.316,6.111-32.685,19.232
		l-0.984,3.834v-57.519h-33.818v145.605h33.818v-60.524c0-15.428,6.145-22.308,19.925-22.308c13.948,0,15.71,2.296,15.71,20.476
		V667.112z"/>
	<path class="st1" d="M853.722,669.811c-44.713,0-55.892-11.361-55.892-57.175c0-45.814,11.179-57.176,55.892-57.176
		c43.432,0,54.978,10.079,55.893,50.029v17.042h-74.951c0.734,19.242,4.215,21.624,19.242,21.624
		c14.477,0,18.142-2.382,18.142-11.544H908.7C907.966,662.297,896.971,669.811,853.722,669.811 M872.965,596.876
		c-0.367-14.111-2.933-15.76-19.059-15.76c-13.561,0-17.776,1.832-19.059,15.76H872.965z"/>
	<path class="st1" d="M853.722,670.311c-23.979,0-37.037-3.349-45.071-11.558c-8.041-8.217-11.32-21.577-11.32-46.117
		c0-24.539,3.279-37.901,11.32-46.117c8.034-8.21,21.092-11.559,45.071-11.559c43.879,0,55.473,10.387,56.393,50.518v17.553h-74.93
		c0.774,18.709,4.316,20.624,18.721,20.624c14.179,0,17.642-2.168,17.642-11.045v-0.5h37.664l-0.012,0.513
		C908.46,662.562,897.053,670.311,853.722,670.311 M853.722,555.96c-44.52,0-55.391,11.123-55.391,56.676
		c0,45.552,10.871,56.675,55.391,56.675c42.807,0,53.624-7.122,54.464-36.201h-35.642c-0.143,9.047-4.265,11.545-18.638,11.545
		c-15.074,0-18.982-2.172-19.741-22.105l-0.02-0.519h74.97v-16.542c-0.483-21.078-3.912-32.56-11.835-39.623
		C889.385,558.83,876.766,555.96,853.722,555.96 M873.478,597.376h-39.18l0.051-0.546c1.298-14.086,5.563-16.214,19.557-16.214
		c16.632,0,19.191,2.126,19.559,16.247L873.478,597.376z M835.397,596.376h37.054c-0.394-13.09-2.626-14.76-18.545-14.76
		C840.595,581.616,836.686,583.469,835.397,596.376"/>
	<polygon class="st1" points="932.892,524.674 971.376,524.674 971.376,578.183 1026.352,578.183 1026.352,524.674 
		1064.835,524.674 1064.835,667.612 1026.352,667.612 1026.352,611.17 971.376,611.17 971.376,667.612 932.892,667.612 	"/>
	<path class="st1" d="M1065.335,668.112h-39.482v-56.443h-53.977v56.443h-39.483V524.174h39.483v53.509h53.977v-53.509h39.482
		V668.112z M1026.853,667.112h37.482V525.174h-37.482v53.509h-55.977v-53.509h-37.483v141.938h37.483v-56.443h55.977V667.112z"/>
	<path class="st1" d="M1140.527,555.46c45.996,0,57.541,11.362,57.541,57.176c0,45.814-11.545,57.175-57.541,57.175
		c-45.998,0-57.542-11.361-57.542-57.175C1082.985,566.822,1094.529,555.46,1140.527,555.46 M1119.635,612.636
		c0,26.755,2.016,29.687,20.892,29.687c18.874,0,20.89-2.932,20.89-29.687c0-26.756-2.016-29.688-20.89-29.688
		C1121.651,582.948,1119.635,585.88,1119.635,612.636"/>
	<path class="st1" d="M1140.526,670.31c-24.666,0-38.101-3.346-46.372-11.551c-8.289-8.223-11.67-21.586-11.67-46.124
		c0-24.537,3.381-37.899,11.67-46.123c8.271-8.206,21.706-11.552,46.372-11.552c24.666,0,38.101,3.346,46.371,11.552
		c8.289,8.223,11.67,21.586,11.67,46.123c0,24.538-3.381,37.901-11.67,46.124C1178.627,666.964,1165.192,670.31,1140.526,670.31
		 M1140.526,555.96c-45.847,0-57.042,11.123-57.042,56.675s11.195,56.675,57.042,56.675c45.846,0,57.041-11.123,57.041-56.675
		S1186.372,555.96,1140.526,555.96 M1140.526,642.822c-19.192,0-21.392-3.103-21.392-30.187c0-27.083,2.2-30.187,21.392-30.187
		c19.191,0,21.391,3.104,21.391,30.187C1161.917,639.719,1159.717,642.822,1140.526,642.822 M1140.526,583.448
		c-18.486,0-20.392,2.728-20.392,29.187s1.906,29.187,20.392,29.187c18.485,0,20.391-2.728,20.391-29.187
		S1159.011,583.448,1140.526,583.448"/>
	<path class="st1" d="M1265.512,667.612h-19.975c-23.639,0-29.503-6.048-29.321-30.054v-116.55h34.819v106.105
		c0,8.43,1.467,9.346,14.477,9.346V667.612z"/>
	<path class="st1" d="M1266.012,668.113h-20.475c-12.66,0-19.572-1.762-23.859-6.083c-4.334-4.366-6.061-11.458-5.962-24.476
		V520.508h35.819v106.605c0,7.847,0.779,8.846,13.977,8.846h0.5V668.113z M1216.716,521.508v116.05
		c-0.097,12.726,1.547,19.612,5.672,23.768c4.078,4.11,10.785,5.787,23.149,5.787h19.475v-30.155
		c-12.839-0.028-14.477-1.214-14.477-9.845V521.508H1216.716z"/>
	<path class="st1" d="M1332.952,667.612h-19.975c-23.639,0-29.503-6.048-29.321-30.054v-116.55h34.819v106.105
		c0,8.43,1.466,9.346,14.477,9.346V667.612z"/>
	<path class="st1" d="M1333.451,668.113h-20.475c-12.659,0-19.571-1.762-23.858-6.082c-4.334-4.367-6.061-11.459-5.962-24.477
		V520.508h35.818v106.605c0,7.847,0.779,8.846,13.977,8.846h0.5V668.113z M1284.156,521.508v116.05
		c-0.097,12.726,1.547,19.612,5.672,23.768c4.078,4.11,10.785,5.787,23.148,5.787h19.475v-30.155
		c-12.839-0.028-14.477-1.214-14.477-9.845V521.508H1284.156z"/>
	<path class="st1" d="M1377.303,704.264h-25.106v-29.321h20.708c13.928,0,15.76-0.733,17.777-7.88l0.915-3.116h-21.99
		l-30.421-106.287h36.285l22.174,81.365h1.099l21.075-81.365h34.085l-31.887,118.565
		C1415.971,698.582,1406.624,704.264,1377.303,704.264"/>
	<path class="st1" d="M1377.302,704.764h-25.605v-30.321h21.208c13.757,0,15.373-0.702,17.294-7.516l0.729-2.48h-21.699
		l-0.103-0.363l-30.604-106.924h37.33l0.101,0.369l22.073,80.996h0.331l21.074-81.365h35.124l-0.17,0.63l-31.886,118.565
		C1416.396,698.923,1407.103,704.764,1377.302,704.764 M1352.697,703.764h24.605c29.194,0,38.288-5.689,44.232-27.67l31.717-117.934
		h-33.046l-21.074,81.365h-1.869l-0.1-0.368l-22.073-80.997h-35.241l30.135,105.287h22.281l-1.104,3.756
		c-2.165,7.68-4.527,8.24-18.255,8.24h-20.208V703.764z"/>
	<polygon class="st1" points="1503.022,557.66 1459.223,557.66 1459.223,524.674 1585.67,524.674 1585.67,557.66 1541.505,557.66 
		1541.505,667.612 1503.022,667.612 	"/>
	<path class="st1" d="M1542.005,668.112h-39.483V558.16h-43.799v-33.986h127.447v33.986h-44.165V668.112z M1503.522,667.112h37.483
		V557.16h44.165v-31.986h-125.447v31.986h43.799V667.112z"/>
	<path class="st1" d="M1632.222,557.66v20.341c3.116-14.111,13.011-20.341,31.337-20.341h12.644v31.152l-24.74-0.366
		c-13.561-0.183-19.241,5.131-19.241,17.409v61.757h-34.819V557.66H1632.222z"/>
	<path class="st1" d="M1632.721,668.112h-35.819V557.16h35.819v17.173c3.981-11.695,13.883-17.173,30.837-17.173h13.145v32.16
		l-25.248-0.374c-6.917-0.102-11.718,1.28-14.678,4.201c-2.729,2.693-4.056,6.849-4.056,12.707V668.112z M1597.902,667.112h33.819
		v-61.258c0-6.139,1.424-10.529,4.354-13.419c3.16-3.118,8.179-4.588,15.394-4.489l24.234,0.358V558.16h-12.145
		c-18.289,0-27.802,6.152-30.848,19.948l-0.989,4.477V558.16h-33.819V667.112z"/>
	<path class="st1" d="M1690.683,521.009h36.652v25.655h-36.652V521.009z M1726.418,667.612H1691.6V557.66h34.818V667.612z"/>
	<path class="st1" d="M1726.918,668.113H1691.1V557.161h35.818V668.113z M1692.1,667.113h33.818V558.161H1692.1V667.113z
		 M1727.835,547.164h-37.652v-26.656h37.652V547.164z M1691.183,546.164h35.652v-24.656h-35.652V546.164z"/>
	<path class="st1" d="M1749.145,557.66h33.903v20.707c3.114-15.944,14.293-22.907,35.734-22.907
		c34.268,0,42.881,11.362,42.881,57.176c0,45.814-8.245,57.175-41.049,57.175c-21.624,0-33.169-6.597-36.65-21.808v56.261h-34.819
		V557.66z M1804.122,640.49c18.874,0,20.891-2.748,20.891-27.854c0-25.106-1.833-27.855-19.058-27.855
		c-15.212,0-21.991,6.231-21.991,21.074v22.724C1783.964,636.459,1791.111,640.49,1804.122,640.49"/>
	<path class="st1" d="M1784.463,704.763h-35.819V557.16h34.904v17.153c4.156-13.346,15.212-19.353,35.234-19.353
		c34.462,0,43.381,11.858,43.381,57.675s-8.543,57.675-41.55,57.675c-20.412,0-31.739-5.801-36.15-18.703V704.763z
		 M1749.644,703.763h33.819v-60.185l0.987,4.313c3.392,14.814,14.544,21.419,36.163,21.419c32.592,0,40.55-11.123,40.55-56.675
		s-8.317-56.675-42.381-56.675c-21.334,0-32.204,6.94-35.243,22.503l-0.991-0.096V558.16h-32.904V703.763z M1804.122,640.99
		c-17.075,0-20.659-6.749-20.659-12.411v-22.725c0-14.921,6.936-21.574,22.491-21.574c17.548,0,19.559,2.915,19.559,28.355
		S1823.313,640.99,1804.122,640.99 M1805.954,585.28c-15.063,0-21.491,6.153-21.491,20.574v22.725
		c0,9.431,10.69,11.411,19.659,11.411c18.485,0,20.391-2.557,20.391-27.355S1822.778,585.28,1805.954,585.28"/>
	<path class="st1" d="M580.769,403.749c-1.303-1.398-2.942-2.122-4.968-2.122c-1.929,0-3.665,0.772-5.112,2.315
		c-1.495,1.543-2.266,3.328-2.266,5.305c0,2.17,0.723,3.955,2.17,5.45c1.398,1.495,3.086,2.218,5.015,2.218
		c2.026,0,3.714-0.723,5.064-2.218c1.399-1.495,2.074-3.28,2.074-5.45C582.746,407.029,582.071,405.196,580.769,403.749
		 M563.455,403.749c-1.302-1.398-2.942-2.122-4.967-2.122c-1.978,0-3.714,0.772-5.209,2.315s-2.266,3.328-2.266,5.305
		c0,2.17,0.723,3.955,2.17,5.45c1.398,1.495,3.134,2.218,5.16,2.218c1.977,0,3.665-0.723,5.016-2.218
		c1.398-1.495,2.073-3.28,2.073-5.45C565.432,407.029,564.757,405.196,563.455,403.749"/>
	<path class="st1" d="M770.704,435.868v42.729h-12.732v-47.118l-11.478,4.389v42.729h-12.201v-47.118l-11.478,4.389v42.729H616.329
		v0.097H614.4v-46.491h-11.526v8.391c-14.709-10.803-29.708-12.78-45.044-5.932c-16.156,10.032-22.763,23.294-19.918,39.739
		c2.122,7.572,8.295,13.118,18.471,16.59h225.799v-59.512L770.704,435.868z M602.681,476.234c-0.145,1.495-0.771,2.315-1.929,2.46
		h-41.716c-4.871-0.386-8.103-2.846-9.742-7.476c-2.026-17.554,6.269-27.441,24.788-29.708
		C595.978,442.668,605.527,454.242,602.681,476.234"/>
	<path class="st1" d="M1073.938,402.404c-1.35-1.399-2.99-2.122-4.919-2.122c-2.025,0-3.762,0.772-5.257,2.267
		c-1.495,1.543-2.218,3.279-2.218,5.305c0,2.122,0.723,3.906,2.122,5.401c1.447,1.495,3.134,2.218,5.064,2.218
		c2.025,0,3.713-0.723,5.112-2.218c1.398-1.495,2.073-3.279,2.073-5.401C1075.916,405.635,1075.288,403.851,1073.938,402.404
		 M1056.529,402.404c-1.35-1.399-2.99-2.122-4.919-2.122c-1.977,0-3.762,0.772-5.257,2.267c-1.447,1.543-2.218,3.279-2.218,5.305
		c0,2.122,0.723,3.906,2.17,5.401c1.399,1.495,3.086,2.218,5.016,2.218c2.025,0,3.713-0.723,5.112-2.218
		c1.398-1.495,2.122-3.279,2.122-5.401C1058.554,405.635,1057.88,403.851,1056.529,402.404"/>
	<path class="st1" d="M1302.986,468.036c-4.147-13.649-13.214-20.256-27.248-19.773c-16.686,3.038-25.512,13.166-26.428,30.334
		l-145.887,1.115c0.434-1.35,0.723-2.604,0.916-3.81c2.122-31.637-9.308-47.648-34.241-47.938
		c-22.136,0.386-32.553,16.349-31.348,48.034c0.193,2.122,0.531,3.328,1.013,3.714l-172.556-1.115
		c2.025-3.617,3.134-7.523,3.472-11.767c-0.868-25.271-14.516-38.774-40.897-40.607c-22.715,2.893-35.929,15.433-39.546,37.52
		h12.395c3.568-12.973,11.574-21.171,23.92-24.499c24.982-0.916,34.917,10.514,29.901,34.338c-1.688,2.845-4.196,4.533-7.475,5.015
		h-60.139l6.124,12.395h47.842c2.797,0.145,5.401,0.096,7.813,0c2.634,0,189.108,1.115,189.535,1.115
		c0.235,0,68.359-0.001,68.582-0.001c5.737,0,132.042-1.114,137.778-1.114c1.046,0.251,4.874,0.415,9.26-1.26
		c2.194-0.838,3.497-2.092,3.907-3.756l2.218-13.118c2.459-6.751,5.835-10.61,10.128-11.671c4.244-1.012,9.307-0.096,15.191,2.846
		c3.714,4.051,5.016,8.681,4.003,13.937c-0.048,5.643-2.749,8.103-8.006,7.476l-17.313-9.935l-1.302,11.719l21.075,13.697
		l3.472-1.303C1301.25,490.751,1305.88,480.237,1302.986,468.036 M1093.488,475.902c0,1.398-0.289,2.652-0.916,3.81h-42.151
		c-0.578-0.868-0.916-2.026-1.109-3.569c-1.688-25.416,5.16-37.762,20.593-36.99
		C1088.906,437.947,1096.767,450.197,1093.488,475.902"/>
	<path class="st1" d="M1362.096,403.749c-1.351-1.398-2.991-2.122-4.968-2.122s-3.665,0.772-5.16,2.315s-2.218,3.328-2.218,5.305
		c0,2.17,0.674,3.955,2.121,5.45c1.447,1.495,3.135,2.218,5.064,2.218c1.977,0,3.666-0.723,5.064-2.218
		c1.35-1.495,2.026-3.28,2.026-5.45C1364.025,407.029,1363.397,405.196,1362.096,403.749 M1344.782,403.749
		c-1.302-1.398-2.99-2.122-4.967-2.122c-2.026,0-3.762,0.772-5.257,2.315c-1.495,1.543-2.219,3.328-2.219,5.305
		c0,2.17,0.724,3.955,2.122,5.45c1.447,1.495,3.135,2.218,5.161,2.218c2.025,0,3.665-0.723,5.063-2.218
		c1.351-1.495,2.026-3.28,2.026-5.45C1346.711,407.029,1346.084,405.196,1344.782,403.749"/>
	<path class="st1" d="M1806.038,443.633c-4.388-2.942-11.14-4.437-20.11-4.582h-57.68l-5.449,12.491h55.75
		c7.331-0.048,12.394,0.144,15.095,0.579c2.701,0.482,5.112,1.977,7.331,4.63c2.17,2.604,3.086,6.028,2.7,10.224
		c-0.337,4.244-1.543,7.234-3.52,8.97c-2.025,1.784-5.787,2.652-11.334,2.652h-243.928v-77.983h-11.478v77.983h-135.518v0.097
		h-2.171v-46.491h-11.574v8.391c-14.709-10.803-29.708-12.78-44.996-5.932c-16.156,10.032-22.811,23.294-19.966,39.739
		c2.122,7.572,8.295,13.118,18.519,16.591h195.36h12.361h249.709c2.375-0.396,6.733-1.671,11.364-4.841
		c3.02-2.068,5.275-4.588,6.77-7.554C1818.337,462.875,1815.973,451.204,1806.038,443.633 M1383.959,476.234
		c-0.096,1.495-0.771,2.315-1.929,2.46h-41.716c-4.823-0.386-8.103-2.846-9.742-7.476c-1.978-17.554,6.269-27.441,24.788-29.708
		C1377.304,442.668,1386.805,454.242,1383.959,476.234"/>
	<path class="st1" d="M1861.625,490.985c-4.917,20.407-20.011,28.665-45.274,24.778l1.276-11.57
		c10.508,2.43,18.142,2.11,22.913-0.956c4.766-3.066,7.879-7.151,9.334-12.252V443.25h11.751V490.985z"/>
	<path class="st1" d="M480.959,418.547c-0.161-2.249-1.983-3.16-4.386-2.824c-5.284,0.743-7.926-1.38-8.206-6.671
		c-0.546-10.237-0.883-20.495-1.492-30.733c-0.203-3.391,1.03-5.493,3.629-7.687c3.336-2.809,6.307-6.215,8.745-9.831
		c1.072-1.59,0.988-4.526,0.302-6.453c-0.316-0.897-3.287-0.918-5.081-1.212c-0.784-0.127-1.625,0.098-2.438,0.105
		c-3.882,0.028-5.445-1.156-5.676-5.024c-0.645-10.931-1.226-21.877-1.513-32.822c-0.042-1.801,1.226-3.889,2.438-5.409
		c1.857-2.327,4.225-4.232,6.307-6.384c2.102-2.172,3.86-4.645,2.557-7.806c-1.338-3.251-4.407-1.884-6.804-1.948
		c-4.961-0.133-5.746-0.721-6.706-5.661c-1.506-7.771-3.027-15.549-4.554-23.313c-0.203-1.03-0.323-2.13-0.806-3.027
		c-0.904-1.696-2.151-1.731-3.16-0.077c-0.47,0.771-0.68,1.738-0.855,2.642c-1.556,7.995-3.118,15.983-4.597,23.985
		c-0.694,3.735-2.291,5.255-6.096,5.388c-1.051,0.042-2.102-0.035-3.153-0.035c-4.849,0-6.783,2.922-4.197,7.029
		c1.892,2.999,4.351,5.815,7.084,8.072c1.401,1.156,2.375,2.34,2.971,3.699c0.749,1.745,0.722,3.315,0.7,4.058
		c-0.14,5.003-0.378,12.332-0.77,21.322c0,2.684,0.042,5.368-0.014,8.051c-0.126,6.531-1.983,7.96-8.479,7.085
		c-1.675-0.225-4.583-0.099-4.961,0.749c-0.869,1.913-1.45,4.968-0.476,6.51c2.375,3.763,5.269,7.498,8.772,10.181
		c3.301,2.53,4.646,4.968,4.303,9.053c-0.82,9.747-1.373,19.529-1.836,29.297c-0.28,5.984-2.074,7.666-8.037,6.832
		c-4.8-0.673-7.61,2.502-5.276,6.678c2.571,4.611,6.215,8.612,9.235,12.991c1.114,1.619,2.452,3.511,2.543,5.332
		c0.306,6.11-0.154,9.511-0.175,16.439c-0.03,10.027-0.007,11.037-1.262,16.561c-0.924,4.068-1.781,8.976-10.176,14.621
		c19.211,35.825,32.118,52.641,38.722,50.451c4.678-1.551,6.195-12.636,4.55-33.256c-0.141-2.915-0.19-5.837-0.302-8.752
		c-0.687-18.519-1.345-37.039-1.759-55.566c-0.049-2.06,1.269-4.359,2.488-6.194c2.116-3.182,5.031-5.879,6.86-9.201
		C481.036,423.774,481.134,420.95,480.959,418.547"/>
	<path class="st1" d="M489.574,614.894c-1.338,10.048-4.484,20.005-8.03,29.563c-4.351,11.709-9.495,23.194-15.163,34.328
		c-3.882,7.624-8.731,14.911-14.078,21.61c-9.347,11.737-18.87,23.432-29.325,34.159c-9.319,9.558-19.9,17.918-30.144,26.543
		c-3.952,3.329-8.5,5.949-12.809,8.843c-0.435,0.288-1.079,0.253-1.626,0.372c0.112-0.624,0.042-1.36,0.365-1.836
		c2.172-3.266,4.337-6.538,6.663-9.698c8.479-11.52,17.581-22.626,25.359-34.594c6.748-10.385,12.564-21.463,17.784-32.702
		c4.373-9.425,7.372-19.487,10.812-29.325c5.368-15.346,7.098-31.385,7.61-47.445c0.266-8.535-1.387-17.168-2.628-25.688
		c-1.415-9.719-4.73-18.842-8.759-27.854c-8.969-20.019-22.745-36.184-39.303-50.065c-11.954-10.027-25.092-18.401-39.183-25.268
		c-14.813-7.217-29.577-14.554-44.11-22.325c-12.921-6.916-23.467-16.726-31.728-28.883c-0.967-1.429-1.254-3.349-2.327-4.66
		c-1.093-1.338-2.683-2.901-4.197-3.055c-1.03-0.105-2.705,1.836-3.377,3.21c-4.884,9.992-12.494,17.707-20.966,24.496
		c-9.739,7.813-20.727,13.65-32.113,18.808c-10.055,4.554-20.237,9.004-29.752,14.532c-10.427,6.061-20.258,13.174-30.18,20.069
		c-11.786,8.198-21.512,18.582-30.06,30.018c-3.952,5.29-7.414,10.987-10.665,16.74c-8.402,14.869-12.179,31.266-13.993,47.985
		c-0.981,9.067-0.806,18.505,0.546,27.524c1.955,13.089,5.136,26.031,8.423,38.882c1.457,5.669,4.302,11.015,6.776,16.397
		c3.58,7.813,7.14,15.661,11.19,23.242c3.489,6.538,7.54,12.795,11.541,19.053c3.566,5.584,7.161,11.176,11.169,16.452
		c5.262,6.923,11.008,13.482,16.39,20.321c1.219,1.562,1.758,3.651,2.613,5.494c-2.165-0.694-4.603-0.96-6.425-2.173
		c-3.574-2.368-6.839-5.227-10.175-7.953c-18.078-14.778-35.21-30.481-49.631-49.007c-8.591-11.044-16.838-22.276-23.081-34.812
		c-4.765-9.558-9.341-19.227-13.398-29.093c-8.535-20.755-11.94-42.688-11.744-64.886c0.126-15.192,2.34-30.509,7.603-44.965
		c3.686-10.118,8.079-20.012,12.711-29.745c6.958-14.638,16.873-27.328,28.245-38.735c6.874-6.895,14.477-13.16,22.227-19.074
		c7.939-6.061,16.326-11.554,24.763-16.915c8.339-5.304,17.055-9.992,25.464-15.198c8.093-5.017,16.354-9.873,23.901-15.647
		c10.062-7.701,20.005-15.696,29.045-24.546c7.686-7.512,14.182-16.277,20.888-24.742c3.882-4.898,7.336-10.167,10.616-15.5
		c2.788-4.533,4.975-9.445,7.595-14.091c0.771-1.366,2.264-3.469,3.195-3.356c1.787,0.224,4.079,1.373,4.997,2.858
		c3.454,5.634,6.005,11.856,9.704,17.301c6.328,9.319,13.013,18.422,20.013,27.251c9.473,11.947,21.077,21.813,33.157,30.936
		c9.621,7.266,20.118,13.377,30.285,19.907c6.159,3.952,12.445,7.715,18.66,11.59c8.086,5.052,16.334,9.88,24.202,15.254
		c7.771,5.298,15.318,10.897,22.164,17.343v0.007c0,0,0.014,0.014,0.035,0.035c1.191,1.198,34.727,35.12,47.004,71.683
		c0,0.014,0.007,0.028,0.007,0.035c1.296,4.989,2.732,9.957,3.665,15.009c0.048,0.252,0.091,0.498,0.14,0.75
		c0.007,0.035,0.007,0.07,0.014,0.105c0.189,1.023,0.378,2.046,0.56,3.069c0,0.007,0.007,0.021,0.007,0.035
		c1.367,7.624,2.586,15.332,2.698,23.004C491.599,588.884,491.291,602.029,489.574,614.894"/>
	<path class="st1" d="M425.315,226.35c2.425,1.038,4.569,1.874,6.642,2.86c4.235,2.015,6.81,1.474,9.945-2.01
		c4.201-4.669,8.397-9.349,12.767-13.858c1.959-2.02,2.054-3.576-0.337-5.026c-4.662-2.828-9.362-5.598-14.081-8.332
		c-5.527-3.202-11.14-6.257-16.617-9.543c-2.598-1.559-2.458-4.013,0.275-5.39c1.4-0.705,3.215-1.382,4.643-1.091
		c4.89,0.998,9.695,2.418,14.525,3.702c1.908,0.507,3.797,1.083,5.695,1.624c5.688,1.622,11.39,3.2,17.062,4.878
		c4.106,1.215,7.22,0.238,10.346-2.914c4.561-4.599,9.67-8.67,14.706-12.768c1.17-0.952,2.962-1.442,4.514-1.566
		c4.989-0.398,7.023,2.625,5.375,7.329c-2.257,6.442-6.873,11.04-11.839,15.288c-4.458,3.814-6.682,7.658-4.523,13.934
		c2.677,7.781,4.091,15.988,6.282,23.947c1.136,4.127,3.054,8.05,4.02,12.205c0.317,1.364-0.859,3.929-2.07,4.552
		c-1.213,0.625-3.381-0.326-5.012-0.912c-0.771-0.277-1.417-1.231-1.863-2.022c-3.698-6.566-7.328-13.17-10.994-19.753
		c-1.409-2.53-2.785-5.082-4.31-7.54c-1.561-2.515-4.125-2.553-6.83-0.085c-3.615,3.298-6.794,7.21-10.8,9.911
		c-5.521,3.723-6.549,7.876-3.615,13.589c0.713,1.388,1.194,3.283,0.846,4.718c-0.353,1.449-1.649,3.04-2.969,3.721
		c-0.505,0.261-1.095-0.158-3.417-2.08c-2.431-2.012-3.178-2.775-3.178-2.775c-8.929-9.128-13.394-13.692-15.103-14.889
		c-0.399-0.28-1.896-1.311-2.921-3.207c-0.531-0.985-1.385-2.547-0.741-4.098C422.179,227.691,423.967,227.191,425.315,226.35"/>
	<path class="st1" d="M329.135,255.844c0,28.223-22.884,51.101-51.1,51.101c-28.224,0-51.101-22.878-51.101-51.101
		c0-28.216,22.877-51.094,51.101-51.094c5.392,0,10.59,0.835,15.471,2.384c-2.74-0.552-5.574-0.842-8.476-0.842
		c-23.477,0-42.503,19.033-42.503,42.503c0,23.477,19.026,42.51,42.503,42.51c23.476,0,42.509-19.033,42.509-42.51
		c0-3.016-0.316-5.965-0.915-8.8C328.253,244.984,329.135,250.31,329.135,255.844"/>
	<polygon class="st1" points="286.806,239.032 289.747,244.992 296.322,245.946 291.564,250.584 292.687,257.133 286.806,254.042 
		280.925,257.133 282.048,250.584 277.29,245.946 283.865,244.992 	"/>
	<polygon class="st1" points="581.028,557.66 537.23,557.66 537.23,524.674 663.676,524.674 663.676,557.66 619.511,557.66 
		619.511,667.612 581.028,667.612 	"/>
	<path class="st1" d="M620.011,668.112h-39.483V558.16H536.73v-33.986h127.446v33.986h-44.165V668.112z M581.528,667.112h37.483
		V557.16h44.165v-31.986H537.73v31.986h43.798V667.112z"/>
</g>
</svg>
