<svg width="113" height="101" viewBox="0 0 113 101" fill="none" xmlns="http://www.w3.org/2000/svg">
<path d="M56.1672 0L55.912 0C25.0326 0 0 22.4301 0 50.0991L0 50.3278C0 77.9967 25.0326 100.427 55.912 100.427H56.1672C87.0465 100.427 112.079 77.9967 112.079 50.3278V50.0991C112.079 22.4301 87.0465 0 56.1672 0Z" fill="#383D38"/>
<path d="M73.3817 20.4314L38.7012 20.4314C29.1201 20.4314 21.3257 27.4155 21.3257 36.0005V64.4295C21.3257 73.0145 29.1201 79.9986 38.7012 79.9986H73.3817C82.9628 79.9986 90.7572 73.0145 90.7572 64.4295V36.0005C90.7572 27.4155 82.9628 20.4314 73.3817 20.4314ZM27.4552 36.0005C27.4552 30.4449 32.501 25.9237 38.7012 25.9237L73.3817 25.9237C79.5819 25.9237 84.6277 30.4449 84.6277 36.0005V64.4295C84.6277 69.9851 79.5819 74.5063 73.3817 74.5063H38.7012C32.501 74.5063 27.4552 69.9851 27.4552 64.4295V36.0005Z" fill="white"/>
<path d="M56.0416 64.6933C64.9513 64.6933 72.2038 58.1982 72.2038 50.2114C72.2038 42.2245 64.9552 35.7295 56.0416 35.7295C47.1281 35.7295 39.8794 42.2245 39.8794 50.2114C39.8794 58.1982 47.1281 64.6933 56.0416 64.6933ZM56.0416 41.2253C61.5743 41.2253 66.0743 45.2574 66.0743 50.2149C66.0743 55.1724 61.5743 59.2045 56.0416 59.2045C50.5089 59.2045 46.0089 55.1724 46.0089 50.2149C46.0089 45.2574 50.5089 41.2253 56.0416 41.2253Z" fill="white"/>
<path d="M73.6999 38.0693C76.0991 38.0693 78.0546 36.3206 78.0546 34.1673C78.0546 32.0141 76.103 30.2654 73.6999 30.2654C71.2968 30.2654 69.3452 32.0141 69.3452 34.1673C69.3452 36.3206 71.2968 38.0693 73.6999 38.0693Z" fill="white"/>
</svg>
